<?xml version="1.0" standalone="no"?><svg xmlns="http://www.w3.org/2000/svg" viewBox="0 0 1440 320"><path fill="#87ceeb" fill-opacity="1" d="M0,160L16,160C32,160,64,160,96,165.3C128,171,160,181,192,176C224,171,256,149,288,154.7C320,160,352,192,384,186.7C416,181,448,139,480,106.7C512,75,544,53,576,85.3C608,117,640,203,672,229.3C704,256,736,224,768,192C800,160,832,128,864,101.3C896,75,928,53,960,85.3C992,117,1024,203,1056,197.3C1088,192,1120,96,1152,80C1184,64,1216,128,1248,144C1280,160,1312,128,1344,112C1376,96,1408,96,1424,96L1440,96L1440,320L1424,320C1408,320,1376,320,1344,320C1312,320,1280,320,1248,320C1216,320,1184,320,1152,320C1120,320,1088,320,1056,320C1024,320,992,320,960,320C928,320,896,320,864,320C832,320,800,320,768,320C736,320,704,320,672,320C640,320,608,320,576,320C544,320,512,320,480,320C448,320,416,320,384,320C352,320,320,320,288,320C256,320,224,320,192,320C160,320,128,320,96,320C64,320,32,320,16,320L0,320Z"></path></svg>