<svg xmlns="http://www.w3.org/2000/svg" xmlns:xlink="http://www.w3.org/1999/xlink" width="375" viewBox="0 0 375 375" height="375" version="1.0"><defs><g id="a"><path d="M 28.296875 -52.796875 C 31.234375 -52.796875 34.132812 -52.460938 37 -51.796875 C 39.863281 -51.128906 42 -50.460938 43.40625 -49.796875 L 45.5 -48.796875 L 39.703125 -37.203125 C 35.703125 -39.335938 31.898438 -40.40625 28.296875 -40.40625 C 26.296875 -40.40625 24.878906 -40.1875 24.046875 -39.75 C 23.210938 -39.3125 22.796875 -38.492188 22.796875 -37.296875 C 22.796875 -37.035156 22.828125 -36.769531 22.890625 -36.5 C 22.960938 -36.226562 23.097656 -35.976562 23.296875 -35.75 C 23.492188 -35.519531 23.675781 -35.320312 23.84375 -35.15625 C 24.007812 -34.988281 24.289062 -34.800781 24.6875 -34.59375 C 25.09375 -34.394531 25.410156 -34.242188 25.640625 -34.140625 C 25.878906 -34.046875 26.265625 -33.898438 26.796875 -33.703125 C 27.328125 -33.503906 27.726562 -33.351562 28 -33.25 C 28.269531 -33.144531 28.71875 -32.992188 29.34375 -32.796875 C 29.976562 -32.597656 30.460938 -32.46875 30.796875 -32.40625 C 32.867188 -31.800781 34.671875 -31.128906 36.203125 -30.390625 C 37.734375 -29.660156 39.347656 -28.660156 41.046875 -27.390625 C 42.742188 -26.128906 44.0625 -24.53125 45 -22.59375 C 45.9375 -20.664062 46.40625 -18.46875 46.40625 -16 C 46.40625 -4.332031 38.300781 1.5 22.09375 1.5 C 18.425781 1.5 14.941406 0.929688 11.640625 -0.203125 C 8.347656 -1.335938 5.96875 -2.46875 4.5 -3.59375 L 2.296875 -5.40625 L 9.5 -17.5 C 10.03125 -17.03125 10.726562 -16.476562 11.59375 -15.84375 C 12.46875 -15.21875 14.035156 -14.351562 16.296875 -13.25 C 18.566406 -12.144531 20.535156 -11.59375 22.203125 -11.59375 C 25.867188 -11.59375 27.703125 -12.828125 27.703125 -15.296875 C 27.703125 -16.429688 27.234375 -17.316406 26.296875 -17.953125 C 25.367188 -18.585938 23.785156 -19.300781 21.546875 -20.09375 C 19.316406 -20.894531 17.566406 -21.628906 16.296875 -22.296875 C 13.097656 -23.960938 10.566406 -25.84375 8.703125 -27.9375 C 6.835938 -30.039062 5.90625 -32.828125 5.90625 -36.296875 C 5.90625 -41.492188 7.921875 -45.539062 11.953125 -48.4375 C 15.984375 -51.34375 21.429688 -52.796875 28.296875 -52.796875 Z M 28.296875 -52.796875"/></g><g id="b"><path d="M 9 -51.296875 L 9 -70.40625 L 26.703125 -70.40625 L 26.703125 -51.296875 L 37.5 -51.296875 L 37.5 -37.796875 L 26.703125 -37.796875 L 26.703125 -21.5 C 26.703125 -16.769531 28.035156 -14.40625 30.703125 -14.40625 C 31.367188 -14.40625 32.066406 -14.535156 32.796875 -14.796875 C 33.535156 -15.066406 34.101562 -15.332031 34.5 -15.59375 L 35.09375 -16 L 39.5 -1.703125 C 35.695312 0.429688 31.363281 1.5 26.5 1.5 C 23.164062 1.5 20.296875 0.914062 17.890625 -0.25 C 15.492188 -1.414062 13.675781 -2.984375 12.4375 -4.953125 C 11.207031 -6.921875 10.328125 -8.988281 9.796875 -11.15625 C 9.265625 -13.320312 9 -15.632812 9 -18.09375 L 9 -37.796875 L 1.59375 -37.796875 L 1.59375 -51.296875 Z M 9 -51.296875"/></g><g id="c"><path d="M 17.40625 -21.40625 C 20.601562 -21.40625 23.316406 -20.285156 25.546875 -18.046875 C 27.785156 -15.816406 28.90625 -13.101562 28.90625 -9.90625 C 28.90625 -6.769531 27.785156 -4.082031 25.546875 -1.84375 C 23.316406 0.382812 20.601562 1.5 17.40625 1.5 C 14.269531 1.5 11.582031 0.382812 9.34375 -1.84375 C 7.113281 -4.082031 6 -6.769531 6 -9.90625 C 6 -13.101562 7.113281 -15.816406 9.34375 -18.046875 C 11.582031 -20.285156 14.269531 -21.40625 17.40625 -21.40625 Z M 17.40625 -21.40625"/></g><g id="d"><path d="M 9.5 -6.34375 C 4.695312 -11.582031 2.296875 -18 2.296875 -25.59375 C 2.296875 -33.195312 4.695312 -39.628906 9.5 -44.890625 C 14.300781 -50.160156 20.398438 -52.796875 27.796875 -52.796875 C 34.597656 -52.796875 40.195312 -50.664062 44.59375 -46.40625 L 44.59375 -51.296875 L 62.296875 -51.296875 L 62.296875 0 L 44.796875 0 L 44.796875 -5.796875 L 44.59375 -5.796875 C 40.195312 -0.929688 34.597656 1.5 27.796875 1.5 C 20.398438 1.5 14.300781 -1.113281 9.5 -6.34375 Z M 24.546875 -34.296875 C 22.242188 -32.035156 21.09375 -29.132812 21.09375 -25.59375 C 21.09375 -22.0625 22.191406 -19.175781 24.390625 -16.9375 C 26.597656 -14.707031 29.5 -13.59375 33.09375 -13.59375 C 36.5625 -13.59375 39.410156 -14.726562 41.640625 -17 C 43.878906 -19.269531 45 -22.132812 45 -25.59375 C 45 -29.132812 43.847656 -32.035156 41.546875 -34.296875 C 39.242188 -36.566406 36.425781 -37.703125 33.09375 -37.703125 C 29.695312 -37.703125 26.847656 -36.566406 24.546875 -34.296875 Z M 24.546875 -34.296875"/></g><g id="e"><path d="M 6 0 L 6 -51.296875 L 23.703125 -51.296875 L 23.703125 -43.90625 L 23.90625 -43.90625 C 24.03125 -44.164062 24.242188 -44.492188 24.546875 -44.890625 C 24.847656 -45.296875 25.5 -46 26.5 -47 C 27.5 -48 28.566406 -48.898438 29.703125 -49.703125 C 30.835938 -50.503906 32.300781 -51.21875 34.09375 -51.84375 C 35.894531 -52.476562 37.726562 -52.796875 39.59375 -52.796875 C 41.53125 -52.796875 43.429688 -52.53125 45.296875 -52 C 47.160156 -51.46875 48.53125 -50.9375 49.40625 -50.40625 L 50.796875 -49.59375 L 43.40625 -34.59375 C 41.195312 -36.46875 38.128906 -37.40625 34.203125 -37.40625 C 32.066406 -37.40625 30.234375 -36.9375 28.703125 -36 C 27.171875 -35.0625 26.085938 -33.925781 25.453125 -32.59375 C 24.816406 -31.257812 24.363281 -30.125 24.09375 -29.1875 C 23.832031 -28.257812 23.703125 -27.53125 23.703125 -27 L 23.703125 0 Z M 6 0"/></g></defs><path d="M 187.5 0 C 83.945312 0 0 83.945312 0 187.5 C 0 291.054688 83.945312 375 187.5 375 C 291.054688 375 375 291.054688 375 187.5 C 375 83.945312 291.054688 0 187.5 0 Z M 187.5 0"/><g fill="#D32F23" fill-opacity=".42"><use x="50.504" y="216.93" xmlns:xlink="http://www.w3.org/1999/xlink" xlink:href="#a" xlink:type="simple" xlink:actuate="onLoad" xlink:show="embed"/></g><g fill="#D32F23" fill-opacity=".42"><use x="99.702" y="216.93" xmlns:xlink="http://www.w3.org/1999/xlink" xlink:href="#b" xlink:type="simple" xlink:actuate="onLoad" xlink:show="embed"/></g><g fill="#FFF"><use x="47.531" y="214.254" xmlns:xlink="http://www.w3.org/1999/xlink" xlink:href="#a" xlink:type="simple" xlink:actuate="onLoad" xlink:show="embed"/></g><g fill="#FFF"><use x="96.729" y="214.254" xmlns:xlink="http://www.w3.org/1999/xlink" xlink:href="#b" xlink:type="simple" xlink:actuate="onLoad" xlink:show="embed"/></g><g fill="#D32F23" fill-opacity=".42"><use x="139.191" y="216.93" xmlns:xlink="http://www.w3.org/1999/xlink" xlink:href="#c" xlink:type="simple" xlink:actuate="onLoad" xlink:show="embed"/></g><g fill="#FFFD47"><use x="136.219" y="214.254" xmlns:xlink="http://www.w3.org/1999/xlink" xlink:href="#c" xlink:type="simple" xlink:actuate="onLoad" xlink:show="embed"/></g><g fill="#D32F23" fill-opacity=".42"><use x="174.09" y="216.93" xmlns:xlink="http://www.w3.org/1999/xlink" xlink:href="#d" xlink:type="simple" xlink:actuate="onLoad" xlink:show="embed"/></g><g fill="#D32F23" fill-opacity=".42"><use x="242.387" y="216.93" xmlns:xlink="http://www.w3.org/1999/xlink" xlink:href="#e" xlink:type="simple" xlink:actuate="onLoad" xlink:show="embed"/></g><g fill="#D32F23" fill-opacity=".42"><use x="292.185" y="216.93" xmlns:xlink="http://www.w3.org/1999/xlink" xlink:href="#b" xlink:type="simple" xlink:actuate="onLoad" xlink:show="embed"/></g><g fill="#C83434"><use x="171.117" y="214.254" xmlns:xlink="http://www.w3.org/1999/xlink" xlink:href="#d" xlink:type="simple" xlink:actuate="onLoad" xlink:show="embed"/></g><g fill="#C83434"><use x="239.415" y="214.254" xmlns:xlink="http://www.w3.org/1999/xlink" xlink:href="#e" xlink:type="simple" xlink:actuate="onLoad" xlink:show="embed"/></g><g fill="#C83434"><use x="289.213" y="214.254" xmlns:xlink="http://www.w3.org/1999/xlink" xlink:href="#b" xlink:type="simple" xlink:actuate="onLoad" xlink:show="embed"/></g></svg>